#tb 0: 1/10
0,          0,          0,        1,   192000, 0x10380cf0
0,          1,          1,        1,   192000, 0x1d74af4c
0,          2,          2,        1,   192000, 0xd665492d
0,          3,          3,        1,   192000, 0xbf544565
0,          4,          4,        1,   192000, 0xf8a33b00
0,          5,          5,        1,   192000, 0x7d08bbad
0,          6,          6,        1,   192000, 0x10685a90
0,          7,          7,        1,   192000, 0x0a1a9ef6
0,          8,          8,        1,   192000, 0x3e967980
0,          9,          9,        1,   192000, 0x9849f751
